<svg width="256" height="256" xmlns="http://www.w3.org/2000/svg"
     preserveAspectRatio="xMidYMid" version="1.1">
    <defs>
        <linearGradient id="linearGradient-1" x1="99.140087%" x2="33.8589812%" y1="112.708084%"
                        y2="37.7549606%">
            <stop id="upper-figure" offset="18%">
                <animate attributeName="stop-color"
                         values="#900808; #DD2F18; #900808; #DD2F18; #900808"
                         dur="4s"
                         repeatCount="indefinite"/>
            </stop>
            <stop offset="100%">
                <animate attributeName="stop-color"
                         values=" #DD2F18; #900808; #DD2F18; #900808; #DD2F18;"
                         dur="4s"
                         repeatCount="indefinite"/>
            </stop>
        </linearGradient>
        <linearGradient id="linearGradient-2" x1="0.92569163%" x2="66.1800713%" y1="-12.5823074%"
                        y2="62.3057471%">
            <stop offset="18%">
                <animate attributeName="stop-color"
                         values="#900808; #DD2F18; #900808; #DD2F18; #900808"
                         dur="4s"
                         repeatCount="indefinite"/>
            </stop>
            <stop offset="100%">
                <animate attributeName="stop-color"
                         values=" #DD2F18; #900808; #DD2F18; #900808; #DD2F18;"
                         dur="4s"
                         repeatCount="indefinite"/>
            </stop>
        </linearGradient>
    </defs>
    <g className="layer">
        <g id="stick-one" transform="matrix(1 0 0 1 0 0)">
            <path
                d="m10.26,69.33c-2.64,4.31 -5.61,9.3 -8.13,13.29c-2.25,3.81 -1.04,8.72 2.73,11.05l52.82,32.51c1.85,1.14 4.09,1.49 6.21,0.97c2.11,-0.52 3.93,-1.86 5.04,-3.74c2.12,-3.53 4.84,-8.12 7.81,-13.04c20.92,-34.54 41.97,-30.31 79.92,-12.19l52.38,24.91c1.98,0.94 4.26,1.04 6.32,0.28c2.06,-0.77 3.72,-2.34 4.61,-4.35l25.15,-56.88c1.78,-4.06 -0.03,-8.8 -4.06,-10.65c-11.06,-5.2 -33.04,-15.56 -52.83,-25.11c-71.19,-34.58 -131.69,-32.34 -177.97,42.95z"
                fill="url(#linearGradient-1)" id="svg_1"/>
        </g>
        <g id="stick-two">
            <path
                d="m241.12,190.23c2.64,-4.31 5.6,-9.3 8.12,-13.29c2.26,-3.81 1.05,-8.72 -2.72,-11.05l-52.82,-32.5c-1.87,-1.26 -4.18,-1.69 -6.38,-1.18c-2.19,0.51 -4.08,1.91 -5.2,3.86c-2.12,3.53 -4.84,8.12 -7.81,13.04c-20.92,34.54 -41.97,30.31 -79.92,12.19l-52.21,-24.78c-1.99,-0.95 -4.27,-1.05 -6.33,-0.28c-2.06,0.76 -3.72,2.33 -4.6,4.34l-25.16,56.88c-1.77,4.07 0.03,8.8 4.07,10.65c11.05,5.2 33.03,15.56 52.82,25.11c71.35,34.54 131.85,32.22 178.14,-42.99z"
                fill="url(#linearGradient-2)"
                id="svg_2"/>
        </g>
    </g>
</svg>


